<svg width="35" height="31" viewBox="0 0 35 31" fill="none" xmlns="http://www.w3.org/2000/svg">
<path d="M34.9397 15.6827C34.9397 17.0653 34.1466 18.2538 32.8692 18.7835L4.81684 30.4239C3.65997 30.9039 2.32016 30.7156 1.33237 29.861C0.365305 29.0237 -0.0394226 27.7327 0.277026 26.4933L2.77405 16.7013L3.03345 15.6827L2.77405 14.664L0.277026 4.87208C-0.0394226 3.6327 0.365305 2.34172 1.33237 1.50442C2.28878 0.676968 3.62269 0.446015 4.81684 0.941467L32.8692 12.5819C34.1466 13.1116 34.9397 14.3001 34.9397 15.6827Z" fill="white"/>
<path d="M2.77412 16.7013L0.277026 26.4933C-0.0394226 27.7326 0.365305 29.0236 1.33237 29.8609C2.32016 30.7156 3.65997 30.9039 4.81684 30.4239L32.8692 18.7834C34.1466 18.2537 34.9397 17.0653 34.9397 15.6826L3.03352 15.6826L2.77412 16.7013Z" fill="white"/>
<path d="M16.0173 15.6827C16.0173 16.245 15.5617 16.7014 14.9987 16.7014H2.77417L3.03358 15.6827L2.77417 14.6641H14.9987C15.5616 14.6641 16.0173 15.1205 16.0173 15.6827Z" fill="url(#paint0_linear_1_491)"/>
<path d="M2.77417 16.7013H14.9987C15.5616 16.7013 16.0173 16.245 16.0173 15.6826H3.03358L2.77417 16.7013Z" fill="url(#paint1_linear_1_491)"/>
<defs>
<linearGradient id="paint0_linear_1_491" x1="12.1667" y1="14.7212" x2="12.0114" y2="17.2654" gradientUnits="userSpaceOnUse">
<stop stop-color="#747DEF"/>
<stop offset="1" stop-color="#5E3BE1"/>
</linearGradient>
<linearGradient id="paint1_linear_1_491" x1="12.1667" y1="15.7112" x2="12.1278" y2="16.9868" gradientUnits="userSpaceOnUse">
<stop stop-color="#747DEF"/>
<stop offset="1" stop-color="#5E3BE1"/>
</linearGradient>
</defs>
</svg>
